<?xml version="1.0" encoding="UTF-8" standalone="no"?>
<!-- Generator: Adobe Illustrator 16.0.0, SVG Export Plug-In . SVG Version: 6.00 Build 0)  -->

<svg
   xmlns:dc="http://purl.org/dc/elements/1.1/"
   xmlns:cc="http://creativecommons.org/ns#"
   xmlns:rdf="http://www.w3.org/1999/02/22-rdf-syntax-ns#"
   xmlns:svg="http://www.w3.org/2000/svg"
   xmlns="http://www.w3.org/2000/svg"
   xmlns:sodipodi="http://sodipodi.sourceforge.net/DTD/sodipodi-0.dtd"
   xmlns:inkscape="http://www.inkscape.org/namespaces/inkscape"
   version="1.1"
   id="Capa_1"
   x="0px"
   y="0px"
   width="366.76987"
   height="366.76825"
   viewBox="0 0 366.76986 366.76824"
   xml:space="preserve"
   inkscape:version="0.91 r13725"
   sodipodi:docname="edit.svg"
   inkscape:export-filename="./edit.png"
   inkscape:export-xdpi="3.9300001"
   inkscape:export-ydpi="3.9300001"><metadata
     id="metadata41"><rdf:RDF><cc:Work
         rdf:about=""><dc:format>image/svg+xml</dc:format><dc:type
           rdf:resource="http://purl.org/dc/dcmitype/StillImage" /><dc:title></dc:title></cc:Work></rdf:RDF></metadata><defs
     id="defs39" /><sodipodi:namedview
     pagecolor="#ffffff"
     bordercolor="#666666"
     borderopacity="1"
     objecttolerance="10"
     gridtolerance="10"
     guidetolerance="10"
     inkscape:pageopacity="0"
     inkscape:pageshadow="2"
     inkscape:window-width="1600"
     inkscape:window-height="820"
     id="namedview37"
     showgrid="false"
     inkscape:zoom="0.44628758"
     inkscape:cx="-73.561611"
     inkscape:cy="302.07089"
     inkscape:window-x="0"
     inkscape:window-y="0"
     inkscape:window-maximized="1"
     inkscape:current-layer="Capa_1"
     fit-margin-top="0"
     fit-margin-left="0"
     fit-margin-right="0"
     fit-margin-bottom="0" /><path
     inkscape:connector-curvature="0"
     id="path5"
     d="m 358.97482,89.937685 -29.482,29.486005 -82.147,-82.139005 29.494,-29.4889996 c 9.292,-9.292 23.253,-10.441 31.138,-2.565 l 53.563,53.5719996 c 7.873,7.873 6.726,21.843 -2.566,31.135 z m -125.319,-38.97 82.147,82.147005 -195.883,195.88 c -0.898,0.898 -3.393,3.393 -6.892,4.285 -0.405,0.195 -0.819,0.361 -1.229,0.491 l -102.2300012,32.58 c -2.861,0.904 -5.736,0.319 -7.601,-1.549 -1.87100002,-1.868 -2.45000002,-4.74 -1.55500002,-7.602 L 32.992819,254.97869 c 0.139,-0.419 0.305,-0.827 0.491,-1.224 0.896,-3.505 3.384,-5.993 4.292,-6.897 l 36.812,-36.812 c 18.158,-18.157 0,0 18.158,-18.157 z M 94.651819,322.68269 l -50.569,-50.561 -13.565,42.581 21.554,21.557 z M 230.49982,83.616685 c -2.908,-2.911 -7.625,-2.911 -10.527,0 L 67.264819,236.31469 c -2.905,2.908 -2.905,7.625 0,10.533 2.905,2.908 7.625,2.908 10.53,0 L 230.49982,94.148685 c 2.907,-2.911 2.907,-7.627 0,-10.532 z"
     sodipodi:nodetypes="cccccccccscccccccccccccccccccsccc" /><g
     id="g7"
     transform="translate(-154.76518,-114.89131)" /><g
     id="g9"
     transform="translate(-154.76518,-114.89131)" /><g
     id="g11"
     transform="translate(-154.76518,-114.89131)" /><g
     id="g13"
     transform="translate(-154.76518,-114.89131)" /><g
     id="g15"
     transform="translate(-154.76518,-114.89131)" /><g
     id="g17"
     transform="translate(-154.76518,-114.89131)" /><g
     id="g19"
     transform="translate(-154.76518,-114.89131)" /><g
     id="g21"
     transform="translate(-154.76518,-114.89131)" /><g
     id="g23"
     transform="translate(-154.76518,-114.89131)" /><g
     id="g25"
     transform="translate(-154.76518,-114.89131)" /><g
     id="g27"
     transform="translate(-154.76518,-114.89131)" /><g
     id="g29"
     transform="translate(-154.76518,-114.89131)" /><g
     id="g31"
     transform="translate(-154.76518,-114.89131)" /><g
     id="g33"
     transform="translate(-154.76518,-114.89131)" /><g
     id="g35"
     transform="translate(-154.76518,-114.89131)" /></svg>